<svg xmlns="http://www.w3.org/2000/svg" width="32" height="32" fill="none" viewBox="0 0 24 24"><path fill="url(#a)" d="M16.884 9.873a3.412 3.412 0 0 0 0-4.646c-1.217-1.31-3.093-1.31-4.31 0l-3.21 3.422a1.703 1.703 0 0 0 0 2.321l3.21 3.422c1.217 1.31 3.093 1.31 4.31 0 1.218-1.31 1.218-3.209 0-4.519Z"/><path fill="url(#b)" d="M7.116 14.127a3.412 3.412 0 0 0 0 4.646c1.217 1.31 3.093 1.31 4.31 0l3.21-3.422a1.703 1.703 0 0 0 0-2.321l-3.21-3.422c-1.217-1.31-3.093-1.31-4.31 0-1.218 1.31-1.218 3.209 0 4.519Z"/><defs><linearGradient id="a" x1="16.037" x2="10.893" y1="5.628" y2="13.065" gradientUnits="userSpaceOnUse"><stop stop-color="rgba(138, 43, 226, 1.0)"/><stop offset="1" stop-color="rgba(75, 0, 130, 1.0)"/></linearGradient><linearGradient id="b" x1="7.963" x2="13.107" y1="18.372" y2="10.935" gradientUnits="userSpaceOnUse"><stop stop-color="#6A5ACD"/><stop offset="1" stop-color="#483D8B"/></linearGradient></defs></svg>